<svg width="28" height="28" viewBox="0 0 28 28" fill="none" xmlns="http://www.w3.org/2000/svg">
<path d="M8.4 0.666748H19.6C23.8667 0.666748 27.3333 4.13341 27.3333 8.40008V19.6001C27.3333 21.6511 26.5186 23.6181 25.0683 25.0684C23.618 26.5187 21.651 27.3334 19.6 27.3334H8.4C4.13333 27.3334 0.666666 23.8667 0.666666 19.6001V8.40008C0.666666 6.34907 1.48143 4.38207 2.93171 2.93179C4.38199 1.48151 6.34899 0.666748 8.4 0.666748ZM8.13333 3.33341C6.86029 3.33341 5.63939 3.83913 4.73922 4.7393C3.83905 5.63948 3.33333 6.86037 3.33333 8.13341V19.8667C3.33333 22.5201 5.48 24.6667 8.13333 24.6667H19.8667C21.1397 24.6667 22.3606 24.161 23.2608 23.2609C24.161 22.3607 24.6667 21.1398 24.6667 19.8667V8.13341C24.6667 5.48008 22.52 3.33341 19.8667 3.33341H8.13333ZM21 5.33341C21.442 5.33341 21.8659 5.50901 22.1785 5.82157C22.4911 6.13413 22.6667 6.55805 22.6667 7.00008C22.6667 7.44211 22.4911 7.86603 22.1785 8.17859C21.8659 8.49115 21.442 8.66675 21 8.66675C20.558 8.66675 20.134 8.49115 19.8215 8.17859C19.5089 7.86603 19.3333 7.44211 19.3333 7.00008C19.3333 6.55805 19.5089 6.13413 19.8215 5.82157C20.134 5.50901 20.558 5.33341 21 5.33341ZM14 7.33341C15.7681 7.33341 17.4638 8.03579 18.714 9.28604C19.9643 10.5363 20.6667 12.232 20.6667 14.0001C20.6667 15.7682 19.9643 17.4639 18.714 18.7141C17.4638 19.9644 15.7681 20.6667 14 20.6667C12.2319 20.6667 10.5362 19.9644 9.28595 18.7141C8.03571 17.4639 7.33333 15.7682 7.33333 14.0001C7.33333 12.232 8.03571 10.5363 9.28595 9.28604C10.5362 8.03579 12.2319 7.33341 14 7.33341ZM14 10.0001C12.9391 10.0001 11.9217 10.4215 11.1716 11.1717C10.4214 11.9218 10 12.9392 10 14.0001C10 15.0609 10.4214 16.0784 11.1716 16.8285C11.9217 17.5787 12.9391 18.0001 14 18.0001C15.0609 18.0001 16.0783 17.5787 16.8284 16.8285C17.5786 16.0784 18 15.0609 18 14.0001C18 12.9392 17.5786 11.9218 16.8284 11.1717C16.0783 10.4215 15.0609 10.0001 14 10.0001Z" fill="black"/>
</svg>
