<svg width="54" height="53" viewBox="0 0 54 53" fill="none" xmlns="http://www.w3.org/2000/svg">
<g clip-path="url(#clip0_1_584)">
<path d="M26.9911 53C26.8383 52.5891 26.7282 52.2063 26.6216 51.8235C26.2698 50.5802 25.9607 49.3229 25.6409 48.0726C25.282 46.6608 24.9267 45.2525 24.5216 43.8512C24.3972 43.4227 24.3368 42.9767 24.2942 42.5306C24.2728 42.3059 24.2444 42.0776 24.2195 41.8528C24.2124 41.7966 24.2018 41.7404 24.2053 41.6842C24.2195 41.5157 24.1591 41.3647 24.0845 41.2207C23.8713 40.8168 23.6937 40.3988 23.5195 39.9774C23.4485 39.8053 23.3916 39.6262 23.3277 39.4506C23.3099 39.4049 23.3063 39.3488 23.2815 39.3136C23.1109 39.0854 23.0327 38.8009 22.8408 38.5866C22.7485 38.4848 22.6667 38.3689 22.6454 38.2249C22.6383 38.1652 22.5921 38.1266 22.5566 38.0809C22.3754 37.8491 22.1977 37.6173 22.0165 37.3855C21.9348 37.2802 21.8779 37.1643 21.853 37.0343C21.8139 36.8271 21.7393 36.6269 21.7287 36.4127C21.7251 36.346 21.7287 36.2827 21.7393 36.2195C21.7713 36.0755 21.8068 35.9351 21.8424 35.7911C21.853 35.7524 21.8708 35.7138 21.8921 35.6822C21.9099 35.6541 21.9454 35.64 21.9738 35.6681C22.0165 35.7068 22.052 35.7524 22.0911 35.7911C22.6063 36.2863 23.3916 36.3635 23.9992 35.9807C24.0952 35.921 24.1911 35.8578 24.2906 35.7946C24.5607 35.6225 24.7525 35.3802 24.9018 35.1062C24.9835 34.9552 25.0581 34.8007 25.1221 34.6426C25.2251 34.3863 25.3353 34.1299 25.4135 33.8665C25.5876 33.2659 25.5805 32.6618 25.3921 32.0648C25.3531 31.9419 25.3211 31.8155 25.2927 31.689C25.1896 31.1868 25.0013 30.7232 24.6708 30.3264C24.6175 30.2596 24.582 30.1894 24.5607 30.1121C24.5429 30.0419 24.5251 29.9681 24.5109 29.8979C24.4718 29.7293 24.4683 29.5607 24.5109 29.3922C24.5322 29.3044 24.5571 29.2201 24.5749 29.1323C24.5855 29.0831 24.5607 29.0515 24.5145 29.0445C24.1627 28.9988 23.8962 28.7916 23.6297 28.5844C23.5586 28.5282 23.5018 28.5106 23.4094 28.5352C23.2424 28.5809 23.0718 28.6125 22.9048 28.6441C22.5282 28.7143 22.1551 28.7108 21.7749 28.6511C21.6896 28.6371 21.615 28.616 21.551 28.5598C21.288 28.3315 20.9718 28.191 20.6698 28.0225C20.4424 27.896 20.1901 27.8433 19.9342 27.8293C19.4616 27.8047 18.9926 27.8574 18.5662 28.0751C17.9088 28.4088 17.4966 28.9251 17.4007 29.6626C17.39 29.7434 17.39 29.8241 17.4007 29.9049C17.4256 30.1227 17.4469 30.3404 17.4824 30.5581C17.5215 30.7935 17.6139 31.0112 17.7596 31.2044C17.7951 31.25 17.8307 31.2922 17.8662 31.3378C17.8875 31.3659 17.8982 31.3975 17.8662 31.4221C17.6956 31.545 17.5357 31.682 17.3154 31.7312C16.7185 31.8611 16.921 31.8646 16.3027 31.7276C16.0895 31.6785 15.9083 31.5731 15.72 31.4748C15.5174 31.3694 15.322 31.25 15.1195 31.1376C15.0768 31.113 15.0342 31.092 14.988 31.0744C14.6398 30.9445 14.3235 30.7548 13.9859 30.6038C13.9255 30.5757 13.8687 30.5441 13.8154 30.509C13.5738 30.3474 13.3144 30.2315 13.0337 30.1508C12.8382 30.0946 12.6392 30.0349 12.4402 29.9857C12.2199 29.933 11.9961 29.926 11.7793 29.9787C11.6017 30.0208 11.4382 30.0068 11.2712 29.9576C10.4646 29.7293 9.65799 29.5045 8.85493 29.2692C6.97877 28.7214 5.09195 28.2156 3.20158 27.7204C2.8498 27.6291 2.50868 27.5167 2.17467 27.3798C1.51375 27.1093 0.849273 26.853 0.1848 26.586C0.12084 26.5615 0.0391132 26.5579 -0.00708008 26.4842C0.0106866 26.428 0.0675399 26.4315 0.106627 26.4175C0.891913 26.1014 1.6772 25.7923 2.45893 25.4762C2.77873 25.3463 3.11985 25.2761 3.45031 25.1883C5.62851 24.6228 7.79249 24.0152 9.95647 23.3936C10.3971 23.2672 10.8412 23.1478 11.2854 23.0178C11.4489 22.9687 11.6052 22.9581 11.7722 22.9968C11.9996 23.0494 12.2306 23.0459 12.4545 22.9862C12.7387 22.909 13.0301 22.8457 13.3037 22.7369C13.4352 22.6842 13.5595 22.628 13.6804 22.5542C14.0641 22.3189 14.4728 22.1258 14.8885 21.9502C15.0022 21.901 15.1088 21.8448 15.219 21.7851C15.4606 21.6481 15.7093 21.5182 15.9509 21.3847C16.2068 21.2443 16.4982 21.2162 16.7753 21.1424C16.8002 21.1354 16.8251 21.1354 16.8499 21.1424C17.1662 21.2232 17.5037 21.2372 17.7631 21.476C17.8058 21.5147 17.852 21.5463 17.8946 21.5779C17.884 21.6516 17.8235 21.6903 17.788 21.7394C17.6103 21.9712 17.5037 22.2311 17.4718 22.5226C17.4576 22.6666 17.4362 22.8141 17.4149 22.9581C17.3474 23.4533 17.4931 23.8923 17.7951 24.2822C18.186 24.7879 18.7154 25.0583 19.3515 25.1286C19.6784 25.1672 20.0088 25.1742 20.3322 25.0864C20.4033 25.0653 20.4779 25.0513 20.5418 25.0197C20.8545 24.8546 21.185 24.7247 21.4551 24.4929C21.6007 24.3664 21.7677 24.3173 21.949 24.3067C22.2119 24.2892 22.4749 24.2822 22.7378 24.3067C22.9332 24.3278 23.1251 24.377 23.317 24.4156C23.3561 24.4226 23.3952 24.4367 23.4378 24.4437C23.4982 24.4578 23.548 24.4542 23.5977 24.4086C23.651 24.3594 23.715 24.3208 23.7754 24.2751C23.985 24.1136 24.2089 23.9871 24.4789 23.938C24.5713 23.9204 24.582 23.8958 24.5607 23.8045C24.5536 23.7729 24.55 23.7413 24.5393 23.7097C24.4327 23.4182 24.4789 23.1337 24.5607 22.8457C24.582 22.7755 24.614 22.7123 24.6602 22.6526C24.9977 22.2487 25.186 21.7746 25.2891 21.2653C25.314 21.1459 25.3495 21.03 25.385 20.9141C25.584 20.2293 25.5876 19.5515 25.3211 18.8807C25.2109 18.5997 25.1185 18.3152 24.9871 18.0448C24.916 17.8973 24.8378 17.7568 24.7419 17.6234C24.6033 17.4267 24.4327 17.2651 24.2231 17.1422C24.1662 17.1106 24.1129 17.072 24.0561 17.0368C23.4165 16.5838 22.5495 16.6821 22.0307 17.23C21.917 17.3494 21.8708 17.3389 21.8282 17.1773C21.7891 17.0368 21.7606 16.8929 21.7251 16.7524C21.6896 16.6154 21.7251 16.4784 21.7393 16.3415C21.7393 16.3099 21.7606 16.2782 21.7642 16.2466C21.8104 15.8322 22.0271 15.5021 22.2901 15.193C22.354 15.1193 22.4144 15.0385 22.4784 14.9683C22.5637 14.8769 22.6312 14.7821 22.6596 14.6557C22.6774 14.589 22.7271 14.5257 22.7698 14.466C22.887 14.2904 23.0434 14.1394 23.0967 13.9287C23.0967 13.9217 23.1038 13.9146 23.1073 13.9076C23.2495 13.7531 23.3063 13.5564 23.3703 13.3633C23.5693 12.7873 23.8251 12.2324 24.0987 11.688C24.152 11.5827 24.1769 11.4808 24.1876 11.3649C24.2089 11.0734 24.2515 10.7854 24.2728 10.4939C24.2942 10.1849 24.3617 9.88284 24.4079 9.5773C24.4612 9.21205 24.582 8.86787 24.6815 8.51315C25.019 7.32258 25.314 6.12497 25.6231 4.92737C25.9607 3.61036 26.284 2.29335 26.6571 0.98688C26.7495 0.660261 26.8561 0.333643 26.9592 0C27.0302 0.0491684 27.0373 0.112385 27.0587 0.172089C27.3038 0.899079 27.4993 1.6366 27.6911 2.37764C28.1389 4.10907 28.583 5.84401 29.0308 7.57544C29.1302 7.96176 29.2333 8.34809 29.3506 8.72739C29.5069 9.21907 29.5922 9.72129 29.6668 10.2305C29.713 10.5501 29.745 10.8767 29.7663 11.1999C29.7805 11.4211 29.8267 11.6283 29.9298 11.8285C30.2247 12.3904 30.4699 12.9769 30.6653 13.581C30.6795 13.6196 30.6866 13.6653 30.7115 13.6934C30.8891 13.9111 30.9567 14.1886 31.145 14.3993C31.2374 14.5047 31.3155 14.6206 31.344 14.761C31.3617 14.8453 31.4257 14.9015 31.479 14.9612C31.6531 15.1579 31.8095 15.3651 31.9623 15.5794C32.0546 15.7058 32.1222 15.8428 32.1506 15.9973C32.179 16.1553 32.2288 16.3134 32.2536 16.4749C32.2714 16.6014 32.2643 16.7172 32.2359 16.8367C32.2039 16.9631 32.1719 17.0895 32.1435 17.216C32.1328 17.2651 32.1079 17.3038 32.0689 17.3354C32.0013 17.3319 31.9765 17.2721 31.9374 17.2335C31.4221 16.6892 30.5587 16.5978 29.9333 17.0368C29.8871 17.0685 29.8409 17.1036 29.7912 17.1317C29.4678 17.3073 29.2475 17.5742 29.077 17.8868C29.013 18.0027 28.9561 18.1185 28.9064 18.238C28.7891 18.533 28.6719 18.828 28.5688 19.1265C28.4445 19.4882 28.4409 19.8605 28.4622 20.2363C28.4764 20.4962 28.5226 20.7526 28.6186 20.9984C28.6434 21.0651 28.6612 21.1389 28.6754 21.2091C28.7749 21.7465 28.9668 22.2417 29.3221 22.6666C29.3754 22.7334 29.411 22.8001 29.4252 22.8844C29.4358 22.9406 29.45 22.9968 29.4678 23.0494C29.5282 23.2426 29.5211 23.4322 29.4678 23.6254C29.4465 23.6956 29.4358 23.7694 29.4181 23.8396C29.4003 23.9029 29.4394 23.938 29.4891 23.945C29.8338 23.9907 30.0932 24.1944 30.349 24.3981C30.4201 24.4542 30.4876 24.4718 30.5729 24.4542C30.7399 24.4156 30.9105 24.377 31.0775 24.3454C31.4541 24.2751 31.8272 24.2857 32.2074 24.3383C32.2998 24.3524 32.3815 24.384 32.4526 24.4437C32.7227 24.679 33.046 24.823 33.3587 24.9881C33.5719 25.1005 33.8064 25.1461 34.0481 25.1566C34.5384 25.1777 35.0217 25.1286 35.4623 24.8932C36.0521 24.5807 36.4395 24.1101 36.5674 23.4498C36.5958 23.3058 36.5994 23.1583 36.5816 23.0143C36.5638 22.8528 36.5318 22.6912 36.5141 22.5297C36.4785 22.2136 36.3577 21.9361 36.1516 21.6903C36.1303 21.6657 36.1125 21.6376 36.0841 21.6025C36.2547 21.462 36.4075 21.3075 36.642 21.2688C36.8197 21.2407 36.9938 21.16 37.1714 21.16C37.3491 21.16 37.5232 21.2302 37.7009 21.2723C37.7791 21.2899 37.8643 21.3075 37.9354 21.3461C38.2268 21.4971 38.5146 21.6552 38.8024 21.8097C38.8735 21.8483 38.9446 21.894 39.0192 21.9221C39.3745 22.0555 39.6979 22.2522 40.0425 22.4032C40.0887 22.4243 40.1278 22.4489 40.1705 22.477C40.4227 22.6491 40.7035 22.7685 40.9948 22.8492C41.1689 22.8984 41.3431 22.9441 41.5172 22.9932C41.7517 23.0565 41.9898 23.06 42.2243 23.0073C42.3806 22.9722 42.5299 22.9827 42.6862 23.0248C44.0294 23.4077 45.3725 23.787 46.7157 24.1663C48.1548 24.5737 49.601 24.9494 51.0437 25.3322C51.2249 25.3814 51.4061 25.4411 51.5802 25.5114C52.3868 25.8345 53.1934 26.1541 54.0036 26.4772C53.9929 26.5228 53.9609 26.5369 53.9183 26.5544C53.101 26.8775 52.2873 27.2006 51.4701 27.5273C51.2107 27.6326 50.9371 27.6888 50.667 27.7591C48.4817 28.3245 46.3071 28.9321 44.1395 29.5607C43.6669 29.6977 43.1908 29.8276 42.7182 29.9646C42.5476 30.0138 42.3877 30.0243 42.2101 29.9857C41.9578 29.9295 41.7019 29.9435 41.4532 30.0173C41.2258 30.0875 40.9948 30.1472 40.7674 30.2175C40.5933 30.2737 40.4334 30.3545 40.2771 30.4458C39.8968 30.674 39.4989 30.8637 39.0902 31.0358C38.9907 31.0779 38.8984 31.1236 38.806 31.1798C38.5253 31.3484 38.2374 31.5064 37.939 31.6434C37.7044 31.7487 37.4522 31.7838 37.1999 31.833C37.1395 31.8435 37.0684 31.826 37.0044 31.8155C36.9405 31.8049 36.8765 31.7803 36.8126 31.7733C36.5318 31.7382 36.308 31.5942 36.1054 31.4186C36.0948 31.3519 36.141 31.3238 36.1694 31.2886C36.3613 31.0569 36.4785 30.7935 36.5141 30.4914C36.5318 30.3228 36.5674 30.1543 36.5851 29.9822C36.6313 29.5326 36.5034 29.1252 36.2405 28.7635C35.8603 28.2402 35.3379 27.9487 34.6912 27.8644C34.3963 27.8258 34.1014 27.8082 33.8064 27.8644C33.6856 27.889 33.5613 27.9101 33.4511 27.9663C33.1491 28.1173 32.8328 28.2402 32.577 28.4615C32.378 28.6336 32.147 28.6827 31.8947 28.6933C31.5145 28.7108 31.1379 28.6757 30.7683 28.5844C30.7541 28.5809 30.7364 28.5739 30.7221 28.5703C30.6333 28.5528 30.5409 28.5106 30.4592 28.5247C30.3881 28.5387 30.3277 28.616 30.2638 28.6652C30.0363 28.8408 29.7947 28.9988 29.4998 29.041C29.4394 29.048 29.4145 29.0866 29.4252 29.1428C29.4465 29.2446 29.4678 29.35 29.4927 29.4519C29.5247 29.5818 29.5282 29.7082 29.4927 29.8382C29.4643 29.933 29.45 30.0278 29.4287 30.1227C29.4145 30.1964 29.379 30.2596 29.3292 30.3158C28.9739 30.7408 28.782 31.236 28.6825 31.7733C28.6683 31.8541 28.6434 31.9313 28.6186 32.0086C28.4302 32.5705 28.3983 33.1465 28.5439 33.7155C28.6719 34.2177 28.8637 34.7059 29.1196 35.1624C29.283 35.4504 29.4998 35.6927 29.7983 35.8543C29.8551 35.8859 29.9084 35.9245 29.9617 35.9632C30.5658 36.3706 31.4115 36.3003 31.9303 35.77C31.9729 35.7243 32.0084 35.6646 32.0831 35.64C32.1044 35.6752 32.1328 35.7068 32.1435 35.7419C32.1897 35.9245 32.2323 36.1036 32.2749 36.2863C32.2821 36.3179 32.2821 36.353 32.2785 36.3811C32.2643 36.4864 32.2465 36.5918 32.2252 36.6937C32.0866 37.2802 32.0369 37.375 31.6318 37.8491C31.5643 37.9299 31.4968 38.0142 31.4293 38.095C31.3973 38.1336 31.3653 38.1687 31.3546 38.2179C31.3333 38.3443 31.2587 38.4391 31.1876 38.541C31.0739 38.699 30.9389 38.843 30.8856 39.0397C30.6866 39.2785 30.6262 39.5805 30.5196 39.858C30.3348 40.3286 30.1358 40.7922 29.9013 41.2382C29.8267 41.3787 29.7947 41.5262 29.7841 41.6807C29.7414 42.3375 29.6597 42.9907 29.5247 43.6369C29.4643 43.9319 29.3683 44.2164 29.2866 44.5079C28.949 45.6985 28.6541 46.8961 28.3485 48.0937C28.0109 49.4107 27.6876 50.7277 27.3109 52.0342C27.2328 52.3011 27.1475 52.561 27.0658 52.8244C27.0515 52.8701 27.0302 52.9122 26.9947 53H26.9911Z" fill="white"/>
</g>
<defs>
<clipPath id="clip0_1_584">
<rect width="54" height="53" fill="white"/>
</clipPath>
</defs>
</svg>
