<svg width="52" height="53" viewBox="0 0 52 53" fill="none" xmlns="http://www.w3.org/2000/svg">
<g clip-path="url(#clip0_1_520)">
<path d="M25.7975 53C25.6514 52.5891 25.5462 52.2063 25.4443 51.8235C25.1081 50.5802 24.8126 49.3229 24.5069 48.0726C24.1639 46.6608 23.8243 45.2525 23.4371 43.8512C23.3183 43.4227 23.2605 42.9767 23.2198 42.5306C23.1994 42.3059 23.1722 42.0776 23.1484 41.8528C23.1417 41.7966 23.1315 41.7404 23.1349 41.6842C23.1484 41.5157 23.0907 41.3647 23.0194 41.2207C22.8156 40.8168 22.6458 40.3988 22.4794 39.9774C22.4115 39.8053 22.3571 39.6262 22.296 39.4506C22.279 39.4049 22.2756 39.3488 22.2518 39.3136C22.0888 39.0854 22.0141 38.8009 21.8307 38.5866C21.7424 38.4848 21.6643 38.3689 21.6439 38.2249C21.6371 38.1652 21.593 38.1266 21.559 38.0809C21.3858 37.8491 21.216 37.6173 21.0428 37.3855C20.9647 37.2802 20.9104 37.1643 20.8866 37.0343C20.8492 36.8271 20.7779 36.6269 20.7677 36.4127C20.7643 36.346 20.7677 36.2827 20.7779 36.2195C20.8085 36.0755 20.8424 35.9351 20.8764 35.7911C20.8866 35.7524 20.9036 35.7138 20.9239 35.6822C20.9409 35.6541 20.9749 35.64 21.002 35.6681C21.0428 35.7068 21.0768 35.7524 21.1141 35.7911C21.6066 36.2863 22.3571 36.3635 22.9379 35.9807C23.0296 35.921 23.1213 35.8578 23.2164 35.7946C23.4745 35.6225 23.6579 35.3802 23.8005 35.1062C23.8786 34.9552 23.95 34.8007 24.0111 34.6426C24.1096 34.3863 24.2149 34.1299 24.2896 33.8665C24.456 33.2659 24.4492 32.6618 24.2692 32.0648C24.2318 31.9419 24.2013 31.8155 24.1741 31.689C24.0756 31.1868 23.8956 30.7232 23.5798 30.3264C23.5288 30.2596 23.4949 30.1894 23.4745 30.1121C23.4575 30.0419 23.4405 29.9681 23.4269 29.8979C23.3896 29.7293 23.3862 29.5607 23.4269 29.3922C23.4473 29.3044 23.4711 29.2201 23.4881 29.1323C23.4983 29.0831 23.4745 29.0515 23.4303 29.0445C23.0941 28.9988 22.8394 28.7916 22.5847 28.5844C22.5168 28.5282 22.4624 28.5106 22.3741 28.5352C22.2145 28.5809 22.0515 28.6125 21.8919 28.6441C21.5319 28.7143 21.1753 28.7108 20.8119 28.6511C20.7304 28.6371 20.659 28.616 20.5979 28.5598C20.3466 28.3315 20.0443 28.191 19.7556 28.0225C19.5383 27.896 19.2972 27.8433 19.0526 27.8293C18.6009 27.8047 18.1526 27.8574 17.7451 28.0751C17.1168 28.4088 16.7228 28.9251 16.6311 29.6626C16.6209 29.7434 16.6209 29.8241 16.6311 29.9049C16.6549 30.1227 16.6753 30.3404 16.7092 30.5581C16.7466 30.7935 16.8349 31.0112 16.9742 31.2044C17.0081 31.25 17.0421 31.2922 17.076 31.3378C17.0964 31.3659 17.1066 31.3975 17.076 31.4221C16.913 31.545 16.7602 31.682 16.5496 31.7312C15.9791 31.8611 16.1726 31.8646 15.5817 31.7276C15.3779 31.6785 15.2047 31.5731 15.0247 31.4748C14.8311 31.3694 14.6444 31.25 14.4508 31.1376C14.41 31.113 14.3693 31.092 14.3251 31.0744C13.9923 30.9445 13.69 30.7548 13.3674 30.6038C13.3096 30.5757 13.2553 30.5441 13.2044 30.509C12.9734 30.3474 12.7255 30.2315 12.4572 30.1508C12.2704 30.0946 12.0802 30.0349 11.89 29.9857C11.6795 29.933 11.4655 29.926 11.2583 29.9787C11.0885 30.0208 10.9323 30.0068 10.7727 29.9576C10.0017 29.7293 9.23081 29.5045 8.46327 29.2692C6.67007 28.7214 4.86669 28.2156 3.05991 27.7204C2.72368 27.6291 2.39765 27.5167 2.0784 27.3798C1.44671 27.1093 0.811619 26.853 0.176529 26.586C0.115397 26.5615 0.0372842 26.5579 -0.00686646 26.4842C0.0101146 26.428 0.0644538 26.4315 0.101812 26.4175C0.852373 26.1014 1.60293 25.7923 2.3501 25.4762C2.65576 25.3463 2.98179 25.2761 3.29764 25.1883C5.37951 24.6228 7.4478 24.0152 9.51609 23.3936C9.93722 23.2672 10.3617 23.1478 10.7863 23.0178C10.9425 22.9687 11.0919 22.9581 11.2515 22.9968C11.4689 23.0494 11.6897 23.0459 11.9036 22.9862C12.1753 22.909 12.4538 22.8457 12.7153 22.7369C12.841 22.6842 12.9598 22.628 13.0753 22.5542C13.4421 22.3189 13.8327 22.1258 14.23 21.9502C14.3387 21.901 14.4406 21.8448 14.5459 21.7851C14.7768 21.6481 15.0145 21.5182 15.2455 21.3847C15.49 21.2443 15.7685 21.2162 16.0334 21.1424C16.0572 21.1354 16.0809 21.1354 16.1047 21.1424C16.407 21.2232 16.7296 21.2372 16.9775 21.476C17.0183 21.5147 17.0625 21.5463 17.1032 21.5779C17.093 21.6516 17.0353 21.6903 17.0013 21.7394C16.8315 21.9712 16.7296 22.2311 16.6991 22.5226C16.6855 22.6666 16.6651 22.8141 16.6447 22.9581C16.5802 23.4533 16.7194 23.8923 17.0081 24.2822C17.3817 24.7879 17.8877 25.0583 18.4956 25.1286C18.8081 25.1672 19.1239 25.1742 19.433 25.0864C19.5009 25.0653 19.5722 25.0513 19.6334 25.0197C19.9322 24.8546 20.2481 24.7247 20.5062 24.4929C20.6454 24.3664 20.8051 24.3173 20.9783 24.3067C21.2296 24.2892 21.4809 24.2822 21.7322 24.3067C21.919 24.3278 22.1024 24.377 22.2858 24.4156C22.3232 24.4226 22.3605 24.4367 22.4013 24.4437C22.459 24.4578 22.5066 24.4542 22.5541 24.4086C22.6051 24.3594 22.6662 24.3208 22.7239 24.2751C22.9243 24.1136 23.1383 23.9871 23.3964 23.938C23.4847 23.9204 23.4949 23.8958 23.4745 23.8045C23.4677 23.7729 23.4643 23.7413 23.4541 23.7097C23.3522 23.4182 23.3964 23.1337 23.4745 22.8457C23.4949 22.7755 23.5254 22.7123 23.5696 22.6526C23.8922 22.2487 24.0722 21.7746 24.1707 21.2653C24.1945 21.1459 24.2284 21.03 24.2624 20.9141C24.4526 20.2293 24.456 19.5515 24.2013 18.8807C24.096 18.5997 24.0077 18.3152 23.882 18.0448C23.8141 17.8973 23.7394 17.7568 23.6477 17.6234C23.5152 17.4267 23.3522 17.2651 23.1518 17.1422C23.0975 17.1106 23.0466 17.072 22.9922 17.0368C22.3809 16.5838 21.5522 16.6821 21.0564 17.23C20.9477 17.3494 20.9036 17.3389 20.8628 17.1773C20.8254 17.0368 20.7983 16.8929 20.7643 16.7524C20.7304 16.6154 20.7643 16.4784 20.7779 16.3415C20.7779 16.3099 20.7983 16.2782 20.8017 16.2466C20.8458 15.8322 21.053 15.5021 21.3043 15.193C21.3654 15.1193 21.4232 15.0385 21.4843 14.9683C21.5658 14.8769 21.6303 14.7821 21.6575 14.6557C21.6745 14.589 21.722 14.5257 21.7628 14.466C21.8749 14.2904 22.0243 14.1394 22.0752 13.9287C22.0752 13.9217 22.082 13.9146 22.0854 13.9076C22.2213 13.7531 22.2756 13.5564 22.3368 13.3633C22.5269 12.7873 22.7715 12.2324 23.033 11.688C23.0839 11.5827 23.1077 11.4808 23.1179 11.3649C23.1383 11.0734 23.179 10.7854 23.1994 10.4939C23.2198 10.1849 23.2843 9.88284 23.3284 9.5773C23.3794 9.21205 23.4949 8.86787 23.59 8.51315C23.9126 7.32258 24.1945 6.12497 24.4899 4.92737C24.8126 3.61036 25.1216 2.29335 25.4782 0.98688C25.5665 0.660261 25.6684 0.333643 25.7669 0C25.8348 0.0491684 25.8416 0.112385 25.862 0.172089C26.0964 0.899079 26.2831 1.6366 26.4665 2.37764C26.8945 4.10907 27.319 5.84401 27.7469 7.57544C27.842 7.96176 27.9405 8.34809 28.0526 8.72739C28.202 9.21907 28.2835 9.72129 28.3548 10.2305C28.399 10.5501 28.4295 10.8767 28.4499 11.1999C28.4635 11.4211 28.5077 11.6283 28.6061 11.8285C28.888 12.3904 29.1224 12.9769 29.3092 13.581C29.3227 13.6196 29.3295 13.6653 29.3533 13.6934C29.5231 13.9111 29.5877 14.1886 29.7676 14.3993C29.856 14.5047 29.9307 14.6206 29.9578 14.761C29.9748 14.8453 30.0359 14.9015 30.0869 14.9612C30.2533 15.1579 30.4027 15.3651 30.5488 15.5794C30.6371 15.7058 30.7016 15.8428 30.7288 15.9973C30.7559 16.1553 30.8035 16.3134 30.8273 16.4749C30.8442 16.6014 30.8375 16.7172 30.8103 16.8367C30.7797 16.9631 30.7492 17.0895 30.722 17.216C30.7118 17.2651 30.688 17.3038 30.6507 17.3354C30.5861 17.3319 30.5624 17.2721 30.525 17.2335C30.0326 16.6892 29.2073 16.5978 28.6095 17.0368C28.5654 17.0685 28.5212 17.1036 28.4737 17.1317C28.1646 17.3073 27.9541 17.5742 27.7911 17.8868C27.7299 18.0027 27.6756 18.1185 27.628 18.238C27.516 18.533 27.4039 18.828 27.3054 19.1265C27.1865 19.4882 27.1831 19.8605 27.2035 20.2363C27.2171 20.4962 27.2613 20.7526 27.3529 20.9984C27.3767 21.0651 27.3937 21.1389 27.4073 21.2091C27.5024 21.7465 27.6858 22.2417 28.0254 22.6666C28.0763 22.7334 28.1103 22.8001 28.1239 22.8844C28.1341 22.9406 28.1477 22.9968 28.1646 23.0494C28.2224 23.2426 28.2156 23.4322 28.1646 23.6254C28.1443 23.6956 28.1341 23.7694 28.1171 23.8396C28.1001 23.9029 28.1375 23.938 28.185 23.945C28.5144 23.9907 28.7624 24.1944 29.0069 24.3981C29.0748 24.4542 29.1394 24.4718 29.2209 24.4542C29.3805 24.4156 29.5435 24.377 29.7031 24.3454C30.0631 24.2751 30.4197 24.2857 30.7831 24.3383C30.8714 24.3524 30.9495 24.384 31.0175 24.4437C31.2756 24.679 31.5846 24.823 31.8835 24.9881C32.0873 25.1005 32.3114 25.1461 32.5423 25.1566C33.011 25.1777 33.4729 25.1286 33.894 24.8932C34.4578 24.5807 34.828 24.1101 34.9503 23.4498C34.9774 23.3058 34.9808 23.1583 34.9638 23.0143C34.9469 22.8528 34.9163 22.6912 34.8993 22.5297C34.8654 22.2136 34.7499 21.9361 34.5529 21.6903C34.5325 21.6657 34.5155 21.6376 34.4884 21.6025C34.6514 21.462 34.7974 21.3075 35.0216 21.2688C35.1914 21.2407 35.3578 21.16 35.5276 21.16C35.6974 21.16 35.8638 21.2302 36.0336 21.2723C36.1084 21.2899 36.1899 21.3075 36.2578 21.3461C36.5363 21.4971 36.8114 21.6552 37.0865 21.8097C37.1544 21.8483 37.2223 21.894 37.2936 21.9221C37.6333 22.0555 37.9423 22.2522 38.2717 22.4032C38.3159 22.4243 38.3533 22.4489 38.394 22.477C38.6351 22.6491 38.9034 22.7685 39.1819 22.8492C39.3483 22.8984 39.5148 22.9441 39.6812 22.9932C39.9053 23.0565 40.1329 23.06 40.357 23.0073C40.5064 22.9722 40.6491 22.9827 40.7985 23.0248C42.0823 23.4077 43.3661 23.787 44.6498 24.1663C46.0253 24.5737 47.4075 24.9494 48.7864 25.3322C48.9596 25.3814 49.1328 25.4411 49.2992 25.5114C50.0702 25.8345 50.8411 26.1541 51.6154 26.4772C51.6052 26.5228 51.5747 26.5369 51.5339 26.5544C50.7528 26.8775 49.9751 27.2006 49.1939 27.5273C48.946 27.6326 48.6845 27.6888 48.4264 27.7591C46.3377 28.3245 44.2593 28.9321 42.1876 29.5607C41.7359 29.6977 41.2808 29.8276 40.8291 29.9646C40.6661 30.0138 40.5132 30.0243 40.3434 29.9857C40.1023 29.9295 39.8578 29.9435 39.62 30.0173C39.4027 30.0875 39.1819 30.1472 38.9646 30.2175C38.7982 30.2737 38.6453 30.3545 38.4959 30.4458C38.1325 30.674 37.7521 30.8637 37.3616 31.0358C37.2665 31.0779 37.1782 31.1236 37.0899 31.1798C36.8216 31.3484 36.5465 31.5064 36.2612 31.6434C36.037 31.7487 35.7959 31.7838 35.5548 31.833C35.497 31.8435 35.4291 31.826 35.368 31.8155C35.3069 31.8049 35.2457 31.7803 35.1846 31.7733C34.9163 31.7382 34.7023 31.5942 34.5087 31.4186C34.4986 31.3519 34.5427 31.3238 34.5699 31.2886C34.7533 31.0569 34.8654 30.7935 34.8993 30.4914C34.9163 30.3228 34.9503 30.1543 34.9672 29.9822C35.0114 29.5326 34.8891 29.1252 34.6378 28.7635C34.2744 28.2402 33.7752 27.9487 33.1571 27.8644C32.8752 27.8258 32.5933 27.8082 32.3114 27.8644C32.1959 27.889 32.0771 27.9101 31.9718 27.9663C31.6831 28.1173 31.3808 28.2402 31.1363 28.4615C30.9461 28.6336 30.7254 28.6827 30.4842 28.6933C30.1209 28.7108 29.7609 28.6757 29.4076 28.5844C29.3941 28.5809 29.3771 28.5739 29.3635 28.5703C29.2786 28.5528 29.1903 28.5106 29.1122 28.5247C29.0443 28.5387 28.9865 28.616 28.9254 28.6652C28.708 28.8408 28.4771 28.9988 28.1952 29.041C28.1375 29.048 28.1137 29.0866 28.1239 29.1428C28.1443 29.2446 28.1646 29.35 28.1884 29.4519C28.219 29.5818 28.2224 29.7082 28.1884 29.8382C28.1612 29.933 28.1477 30.0278 28.1273 30.1227C28.1137 30.1964 28.0797 30.2596 28.0322 30.3158C27.6926 30.7408 27.5092 31.236 27.4141 31.7733C27.4005 31.8541 27.3767 31.9313 27.3529 32.0086C27.1729 32.5705 27.1424 33.1465 27.2816 33.7155C27.4039 34.2177 27.5873 34.7059 27.8318 35.1624C27.988 35.4504 28.1952 35.6927 28.4805 35.8543C28.5348 35.8859 28.5858 35.9245 28.6367 35.9632C29.2141 36.3706 30.0224 36.3003 30.5182 35.77C30.559 35.7243 30.5929 35.6646 30.6642 35.64C30.6846 35.6752 30.7118 35.7068 30.722 35.7419C30.7661 35.9245 30.8069 36.1036 30.8476 36.2863C30.8544 36.3179 30.8544 36.353 30.851 36.3811C30.8375 36.4864 30.8205 36.5918 30.8001 36.6937C30.6676 37.2802 30.6201 37.375 30.2329 37.8491C30.1684 37.9299 30.1039 38.0142 30.0393 38.095C30.0088 38.1336 29.9782 38.1687 29.968 38.2179C29.9476 38.3443 29.8763 38.4391 29.8084 38.541C29.6997 38.699 29.5707 38.843 29.5197 39.0397C29.3295 39.2785 29.2718 39.5805 29.1699 39.858C28.9933 40.3286 28.8031 40.7922 28.579 41.2382C28.5077 41.3787 28.4771 41.5262 28.4669 41.6807C28.4261 42.3375 28.348 42.9907 28.219 43.6369C28.1612 43.9319 28.0695 44.2164 27.9914 44.5079C27.6688 45.6985 27.3869 46.8961 27.0948 48.0937C26.7722 49.4107 26.4631 50.7277 26.1031 52.0342C26.0284 52.3011 25.9469 52.561 25.8688 52.8244C25.8552 52.8701 25.8348 52.9122 25.8009 53H25.7975Z" fill="#1B1E18"/>
</g>
<defs>
<clipPath id="clip0_1_520">
<rect width="51.6121" height="53" fill="white"/>
</clipPath>
</defs>
</svg>
