<svg width="52" height="53" viewBox="0 0 52 53" fill="none" xmlns="http://www.w3.org/2000/svg">
<g clip-path="url(#clip0_1_393)">
<path d="M26.0669 53C25.9216 52.5891 25.8169 52.2063 25.7156 51.8235C25.3813 50.5802 25.0875 49.3229 24.7835 48.0726C24.4424 46.6608 24.1047 45.2525 23.7197 43.8512C23.6015 43.4227 23.5441 42.9767 23.5036 42.5306C23.4833 42.3059 23.4563 42.0776 23.4327 41.8528C23.4259 41.7966 23.4158 41.7404 23.4192 41.6842C23.4327 41.5157 23.3753 41.3647 23.3043 41.2207C23.1017 40.8168 22.9328 40.3988 22.7674 39.9774C22.6998 39.8053 22.6458 39.6262 22.585 39.4506C22.5681 39.4049 22.5647 39.3488 22.5411 39.3136C22.379 39.0854 22.3047 38.8009 22.1223 38.5866C22.0345 38.4848 21.9568 38.3689 21.9366 38.2249C21.9298 38.1652 21.8859 38.1266 21.8522 38.0809C21.6799 37.8491 21.5111 37.6173 21.3388 37.3855C21.2612 37.2802 21.2071 37.1643 21.1835 37.0343C21.1463 36.8271 21.0754 36.6269 21.0653 36.4127C21.0619 36.346 21.0653 36.2827 21.0754 36.2195C21.1058 36.0755 21.1396 35.9351 21.1733 35.7911C21.1835 35.7524 21.2004 35.7138 21.2206 35.6822C21.2375 35.6541 21.2713 35.64 21.2983 35.6681C21.3388 35.7068 21.3726 35.7524 21.4097 35.7911C21.8994 36.2863 22.6458 36.3635 23.2233 35.9807C23.3145 35.921 23.4057 35.8578 23.5002 35.7946C23.7569 35.6225 23.9392 35.3802 24.0811 35.1062C24.1588 34.9552 24.2297 34.8007 24.2905 34.6426C24.3884 34.3863 24.4931 34.1299 24.5674 33.8665C24.7329 33.2659 24.7261 32.6618 24.5471 32.0648C24.51 31.9419 24.4796 31.8155 24.4526 31.689C24.3546 31.1868 24.1756 30.7232 23.8616 30.3264C23.8109 30.2596 23.7771 30.1894 23.7569 30.1121C23.74 30.0419 23.7231 29.9681 23.7096 29.8979C23.6724 29.7293 23.6691 29.5607 23.7096 29.3922C23.7299 29.3044 23.7535 29.2201 23.7704 29.1323C23.7805 29.0831 23.7569 29.0515 23.713 29.0445C23.3786 28.9988 23.1253 28.7916 22.8721 28.5844C22.8045 28.5282 22.7505 28.5106 22.6627 28.5352C22.5039 28.5809 22.3418 28.6125 22.1831 28.6441C21.8251 28.7143 21.4705 28.7108 21.1092 28.6511C21.0281 28.6371 20.9572 28.616 20.8964 28.5598C20.6465 28.3315 20.3459 28.191 20.0589 28.0225C19.8427 27.896 19.603 27.8433 19.3598 27.8293C18.9106 27.8047 18.4649 27.8574 18.0596 28.0751C17.4348 28.4088 17.0431 28.9251 16.9519 29.6626C16.9418 29.7434 16.9418 29.8241 16.9519 29.9049C16.9755 30.1227 16.9958 30.3404 17.0296 30.5581C17.0667 30.7935 17.1545 31.0112 17.293 31.2044C17.3267 31.25 17.3605 31.2922 17.3943 31.3378C17.4146 31.3659 17.4247 31.3975 17.3943 31.4221C17.2322 31.545 17.0802 31.682 16.8708 31.7312C16.3035 31.8611 16.496 31.8646 15.9083 31.7276C15.7057 31.6785 15.5335 31.5731 15.3545 31.4748C15.162 31.3694 14.9762 31.25 14.7837 31.1376C14.7432 31.113 14.7027 31.092 14.6588 31.0744C14.3278 30.9445 14.0273 30.7548 13.7064 30.6038C13.649 30.5757 13.595 30.5441 13.5443 30.509C13.3147 30.3474 13.0681 30.2315 12.8013 30.1508C12.6156 30.0946 12.4265 30.0349 12.2374 29.9857C12.028 29.933 11.8152 29.926 11.6092 29.9787C11.4403 30.0208 11.285 30.0068 11.1263 29.9576C10.3597 29.7293 9.59303 29.5045 8.82979 29.2692C7.04665 28.7214 5.25337 28.2156 3.45672 27.7204C3.12238 27.6291 2.79817 27.5167 2.48072 27.3798C1.85256 27.1093 1.22103 26.853 0.589502 26.586C0.528713 26.5615 0.451038 26.5579 0.407135 26.4842C0.424021 26.428 0.478056 26.4315 0.515204 26.4175C1.26156 26.1014 2.00791 25.7923 2.75089 25.4762C3.05484 25.3463 3.37904 25.2761 3.69312 25.1883C5.76332 24.6228 7.82002 24.0152 9.87672 23.3936C10.2955 23.2672 10.7176 23.1478 11.1398 23.0178C11.2951 22.9687 11.4437 22.9581 11.6024 22.9968C11.8186 23.0494 12.0381 23.0459 12.2509 22.9862C12.521 22.909 12.798 22.8457 13.058 22.7369C13.183 22.6842 13.3012 22.628 13.416 22.5542C13.7807 22.3189 14.1691 22.1258 14.5642 21.9502C14.6723 21.901 14.7736 21.8448 14.8783 21.7851C15.108 21.6481 15.3444 21.5182 15.574 21.3847C15.8172 21.2443 16.0941 21.2162 16.3575 21.1424C16.3811 21.1354 16.4048 21.1354 16.4284 21.1424C16.729 21.2232 17.0498 21.2372 17.2964 21.476C17.3369 21.5147 17.3808 21.5463 17.4213 21.5779C17.4112 21.6516 17.3538 21.6903 17.32 21.7394C17.1511 21.9712 17.0498 22.2311 17.0194 22.5226C17.0059 22.6666 16.9857 22.8141 16.9654 22.9581C16.9012 23.4533 17.0397 23.8923 17.3267 24.2822C17.6982 24.7879 18.2014 25.0583 18.8059 25.1286C19.1166 25.1672 19.4307 25.1742 19.738 25.0864C19.8056 25.0653 19.8765 25.0513 19.9373 25.0197C20.2345 24.8546 20.5486 24.7247 20.8052 24.4929C20.9437 24.3664 21.1024 24.3173 21.2747 24.3067C21.5246 24.2892 21.7745 24.2822 22.0244 24.3067C22.2101 24.3278 22.3925 24.377 22.5749 24.4156C22.612 24.4226 22.6492 24.4367 22.6897 24.4437C22.7471 24.4578 22.7944 24.4542 22.8417 24.4086C22.8923 24.3594 22.9531 24.3208 23.0105 24.2751C23.2098 24.1136 23.4225 23.9871 23.6792 23.938C23.767 23.9204 23.7771 23.8958 23.7569 23.8045C23.7501 23.7729 23.7467 23.7413 23.7366 23.7097C23.6353 23.4182 23.6792 23.1337 23.7569 22.8457C23.7771 22.7755 23.8075 22.7123 23.8514 22.6526C24.1723 22.2487 24.3513 21.7746 24.4492 21.2653C24.4728 21.1459 24.5066 21.03 24.5404 20.9141C24.7295 20.2293 24.7329 19.5515 24.4796 18.8807C24.3749 18.5997 24.2871 18.3152 24.1621 18.0448C24.0946 17.8973 24.0203 17.7568 23.9291 17.6234C23.7974 17.4267 23.6353 17.2651 23.436 17.1422C23.382 17.1106 23.3314 17.072 23.2773 17.0368C22.6694 16.5838 21.8454 16.6821 21.3523 17.23C21.2443 17.3494 21.2004 17.3389 21.1598 17.1773C21.1227 17.0368 21.0957 16.8929 21.0619 16.7524C21.0281 16.6154 21.0619 16.4784 21.0754 16.3415C21.0754 16.3099 21.0957 16.2782 21.099 16.2466C21.143 15.8322 21.349 15.5021 21.5989 15.193C21.6597 15.1193 21.7171 15.0385 21.7779 14.9683C21.8589 14.8769 21.9231 14.7821 21.9501 14.6557C21.967 14.589 22.0143 14.5257 22.0548 14.466C22.1662 14.2904 22.3148 14.1394 22.3655 13.9287C22.3655 13.9217 22.3722 13.9146 22.3756 13.9076C22.5107 13.7531 22.5647 13.5564 22.6255 13.3633C22.8146 12.7873 23.0578 12.2324 23.3178 11.688C23.3685 11.5827 23.3921 11.4808 23.4023 11.3649C23.4225 11.0734 23.4631 10.7854 23.4833 10.4939C23.5036 10.1849 23.5678 9.88284 23.6117 9.5773C23.6623 9.21205 23.7771 8.86787 23.8717 8.51315C24.1925 7.32258 24.4728 6.12497 24.7667 4.92737C25.0875 3.61036 25.3948 2.29335 25.7494 0.98688C25.8372 0.660261 25.9385 0.333643 26.0365 0C26.104 0.0491684 26.1108 0.112385 26.131 0.172089C26.3641 0.899079 26.5498 1.6366 26.7322 2.37764C27.1577 4.10907 27.5798 5.84401 28.0054 7.57544C28.0999 7.96176 28.1979 8.34809 28.3093 8.72739C28.4579 9.21907 28.5389 9.72129 28.6099 10.2305C28.6538 10.5501 28.6842 10.8767 28.7044 11.1999C28.7179 11.4211 28.7618 11.6283 28.8598 11.8285C29.1401 12.3904 29.3731 12.9769 29.5589 13.581C29.5724 13.6196 29.5791 13.6653 29.6028 13.6934C29.7716 13.9111 29.8358 14.1886 30.0148 14.3993C30.1026 14.5047 30.1769 14.6206 30.2039 14.761C30.2208 14.8453 30.2816 14.9015 30.3322 14.9612C30.4977 15.1579 30.6463 15.3651 30.7915 15.5794C30.8793 15.7058 30.9435 15.8428 30.9705 15.9973C30.9975 16.1553 31.0448 16.3134 31.0684 16.4749C31.0853 16.6014 31.0786 16.7172 31.0516 16.8367C31.0212 16.9631 30.9908 17.0895 30.9638 17.216C30.9536 17.2651 30.93 17.3038 30.8928 17.3354C30.8287 17.3319 30.805 17.2721 30.7679 17.2335C30.2782 16.6892 29.4575 16.5978 28.8632 17.0368C28.8193 17.0685 28.7753 17.1036 28.7281 17.1317C28.4207 17.3073 28.2114 17.5742 28.0493 17.8868C27.9885 18.0027 27.9344 18.1185 27.8872 18.238C27.7757 18.533 27.6643 18.828 27.5663 19.1265C27.4481 19.4882 27.4447 19.8605 27.465 20.2363C27.4785 20.4962 27.5224 20.7526 27.6136 20.9984C27.6372 21.0651 27.6541 21.1389 27.6676 21.2091C27.7622 21.7465 27.9446 22.2417 28.2823 22.6666C28.3329 22.7334 28.3667 22.8001 28.3802 22.8844C28.3904 22.9406 28.4039 22.9968 28.4207 23.0494C28.4782 23.2426 28.4714 23.4322 28.4207 23.6254C28.4005 23.6956 28.3904 23.7694 28.3735 23.8396C28.3566 23.9029 28.3937 23.938 28.441 23.945C28.7686 23.9907 29.0151 24.1944 29.2583 24.3981C29.3258 24.4542 29.39 24.4718 29.471 24.4542C29.6298 24.4156 29.7919 24.377 29.9506 24.3454C30.3086 24.2751 30.6632 24.2857 31.0245 24.3383C31.1123 24.3524 31.19 24.384 31.2576 24.4437C31.5142 24.679 31.8216 24.823 32.1187 24.9881C32.3214 25.1005 32.5443 25.1461 32.7739 25.1566C33.24 25.1777 33.6993 25.1286 34.118 24.8932C34.6786 24.5807 35.0468 24.1101 35.1683 23.4498C35.1953 23.3058 35.1987 23.1583 35.1818 23.0143C35.165 22.8528 35.1346 22.6912 35.1177 22.5297C35.0839 22.2136 34.9691 21.9361 34.7732 21.6903C34.7529 21.6657 34.7361 21.6376 34.709 21.6025C34.8711 21.462 35.0164 21.3075 35.2393 21.2688C35.4081 21.2407 35.5736 21.16 35.7424 21.16C35.9113 21.16 36.0768 21.2302 36.2456 21.2723C36.3199 21.2899 36.401 21.3075 36.4685 21.3461C36.7455 21.4971 37.019 21.6552 37.2926 21.8097C37.3601 21.8483 37.4277 21.894 37.4986 21.9221C37.8363 22.0555 38.1436 22.2522 38.4712 22.4032C38.5151 22.4243 38.5523 22.4489 38.5928 22.477C38.8326 22.6491 39.0994 22.7685 39.3763 22.8492C39.5418 22.8984 39.7072 22.9441 39.8727 22.9932C40.0956 23.0565 40.3219 23.06 40.5448 23.0073C40.6934 22.9722 40.8352 22.9827 40.9838 23.0248C42.2604 23.4077 43.537 23.787 44.8135 24.1663C46.1813 24.5737 47.5558 24.9494 48.9269 25.3322C49.0991 25.3814 49.2714 25.4411 49.4369 25.5114C50.2035 25.8345 50.9701 26.1541 51.7401 26.4772C51.73 26.5228 51.6996 26.5369 51.659 26.5544C50.8823 26.8775 50.1089 27.2006 49.3322 27.5273C49.0856 27.6326 48.8256 27.6888 48.5689 27.7591C46.492 28.3245 44.4251 28.9321 42.3651 29.5607C41.9159 29.6977 41.4634 29.8276 41.0142 29.9646C40.8521 30.0138 40.7001 30.0243 40.5313 29.9857C40.2915 29.9295 40.0483 29.9435 39.8119 30.0173C39.5958 30.0875 39.3763 30.1472 39.1601 30.2175C38.9947 30.2737 38.8427 30.3545 38.6941 30.4458C38.3327 30.674 37.9545 30.8637 37.5661 31.0358C37.4716 31.0779 37.3838 31.1236 37.2959 31.1798C37.0291 31.3484 36.7556 31.5064 36.4719 31.6434C36.249 31.7487 36.0092 31.7838 35.7695 31.833C35.7121 31.8435 35.6445 31.826 35.5837 31.8155C35.5229 31.8049 35.4621 31.7803 35.4014 31.7733C35.1346 31.7382 34.9218 31.5942 34.7293 31.4186C34.7192 31.3519 34.7631 31.3238 34.7901 31.2886C34.9725 31.0569 35.0839 30.7935 35.1177 30.4914C35.1346 30.3228 35.1683 30.1543 35.1852 29.9822C35.2291 29.5326 35.1075 29.1252 34.8576 28.7635C34.4963 28.2402 33.9998 27.9487 33.3852 27.8644C33.1049 27.8258 32.8246 27.8082 32.5443 27.8644C32.4294 27.889 32.3112 27.9101 32.2066 27.9663C31.9195 28.1173 31.6189 28.2402 31.3758 28.4615C31.1866 28.6336 30.9671 28.6827 30.7274 28.6933C30.366 28.7108 30.008 28.6757 29.6568 28.5844C29.6433 28.5809 29.6264 28.5739 29.6129 28.5703C29.5285 28.5528 29.4407 28.5106 29.363 28.5247C29.2954 28.5387 29.238 28.616 29.1772 28.6652C28.9611 28.8408 28.7314 28.9988 28.4511 29.041C28.3937 29.048 28.3701 29.0866 28.3802 29.1428C28.4005 29.2446 28.4207 29.35 28.4444 29.4519C28.4748 29.5818 28.4782 29.7082 28.4444 29.8382C28.4174 29.933 28.4039 30.0278 28.3836 30.1227C28.3701 30.1964 28.3363 30.2596 28.289 30.3158C27.9513 30.7408 27.769 31.236 27.6744 31.7733C27.6609 31.8541 27.6372 31.9313 27.6136 32.0086C27.4346 32.5705 27.4042 33.1465 27.5427 33.7155C27.6643 34.2177 27.8466 34.7059 28.0898 35.1624C28.2451 35.4504 28.4511 35.6927 28.7348 35.8543C28.7889 35.8859 28.8395 35.9245 28.8902 35.9632C29.4643 36.3706 30.2681 36.3003 30.7611 35.77C30.8017 35.7243 30.8354 35.6646 30.9063 35.64C30.9266 35.6752 30.9536 35.7068 30.9638 35.7419C31.0077 35.9245 31.0482 36.1036 31.0887 36.2863C31.0955 36.3179 31.0955 36.353 31.0921 36.3811C31.0786 36.4864 31.0617 36.5918 31.0414 36.6937C30.9097 37.2802 30.8624 37.375 30.4774 37.8491C30.4133 37.9299 30.3491 38.0142 30.2849 38.095C30.2545 38.1336 30.2242 38.1687 30.214 38.2179C30.1938 38.3443 30.1228 38.4391 30.0553 38.541C29.9472 38.699 29.8189 38.843 29.7682 39.0397C29.5791 39.2785 29.5217 39.5805 29.4204 39.858C29.2448 40.3286 29.0557 40.7922 28.8328 41.2382C28.7618 41.3787 28.7314 41.5262 28.7213 41.6807C28.6808 42.3375 28.6031 42.9907 28.4748 43.6369C28.4174 43.9319 28.3262 44.2164 28.2485 44.5079C27.9277 45.6985 27.6474 46.8961 27.3569 48.0937C27.0361 49.4107 26.7288 50.7277 26.3708 52.0342C26.2965 52.3011 26.2155 52.561 26.1378 52.8244C26.1243 52.8701 26.104 52.9122 26.0702 53H26.0669Z" fill="#828282"/>
</g>
<defs>
<clipPath id="clip0_1_393">
<rect width="51.3228" height="53" fill="white" transform="translate(0.414246)"/>
</clipPath>
</defs>
</svg>
